<?xml version="1.0" encoding="UTF-8" standalone="no"?>
<!-- Created with Inkscape (http://www.inkscape.org/) -->

<svg
   width="210mm"
   height="297mm"
   viewBox="0 0 210 297"
   version="1.1"
   id="svg1"
   xmlns="http://www.w3.org/2000/svg"
   xmlns:svg="http://www.w3.org/2000/svg">
  <defs
     id="defs1" />
  <g
     id="layer1">
    <path
       style="fill:none;fill-opacity:1;stroke:#7cb3dd;stroke-width:0.264999;stroke-linecap:butt;stroke-linejoin:miter;stroke-dasharray:none;stroke-opacity:1"
       d="m 1.8337272,74.775321 c 4.567051,3.871525 11.0975208,5.29205 16.8601028,3.667453 0.530085,-0.149443 1.056349,-0.323966 1.543104,-0.581634 0.486756,-0.257668 0.934998,-0.602565 1.258423,-1.048345 0.295425,-0.407187 0.482109,-0.904184 0.464664,-1.406949 -0.0087,-0.251383 -0.06846,-0.501736 -0.18156,-0.726408 -0.113101,-0.224672 -0.28007,-0.423082 -0.486851,-0.566298 -0.226169,-0.156644 -0.497559,-0.245191 -0.772258,-0.260359 -0.2747,-0.01517 -0.552092,0.04217 -0.801889,0.157458 -0.499594,0.230576 -0.875715,0.688415 -1.065602,1.204848 -0.189888,0.516432 -0.204122,1.086543 -0.10474,1.627729 0.09938,0.541187 0.30821,1.056835 0.554204,1.54902 1.075855,2.152572 2.864665,3.886374 4.86603,5.222626 2.001365,1.336251 4.221629,2.30489 6.441953,3.232894 0.925607,0.386865 1.87545,0.773115 2.87706,0.829603 0.500805,0.02824 1.010219,-0.02872 1.479885,-0.20484 0.469666,-0.176117 0.898283,-0.475146 1.195175,-0.879446 0.261138,-0.355611 0.412847,-0.777478 0.611243,-1.171548 0.360958,-0.716965 0.887633,-1.353098 1.539573,-1.821397 0.651941,-0.468298 1.429423,-0.765691 2.229755,-0.82732 0.267054,-0.02056 0.538912,-0.0149 0.798041,0.05287 0.25913,0.06777 0.505955,0.201234 0.679128,0.405566 0.214608,0.253223 0.299331,0.589901 0.356558,0.916863 0.03933,0.224729 0.06884,0.452984 0.05388,0.680638 -0.01496,0.227654 -0.07669,0.456236 -0.206685,0.643721 -0.157502,0.227151 -0.407962,0.38077 -0.675386,0.45069 -0.267424,0.06992 -0.550995,0.06078 -0.822168,0.0072 -0.542346,-0.107137 -1.03433,-0.384578 -1.558659,-0.559782 -0.151088,-0.05049 -0.305593,-0.09274 -0.449867,-0.160282 -0.144273,-0.06754 -0.280111,-0.163428 -0.365124,-0.298148 -0.06101,-0.09668 -0.09317,-0.208963 -0.112291,-0.321673 -0.01912,-0.112711 -0.02593,-0.227121 -0.04052,-0.340508 -0.05011,-0.38955 -0.194146,-0.76759 -0.422182,-1.087371 -0.228036,-0.319781 -0.540241,-0.580161 -0.898914,-0.740204 -0.358674,-0.160043 -0.763147,-0.218439 -1.151376,-0.158951 -0.388229,0.05949 -0.75854,0.237671 -1.042171,0.509358 -0.386072,0.369813 -0.597671,0.895522 -0.66218,1.426231 -0.05823,0.479065 -0.0024,0.976349 0.19499,1.416709 0.197427,0.44036 0.541171,0.820095 0.976558,1.02826 0.545732,0.260923 1.178921,0.239016 1.782792,0.203748 0.652421,-0.03811 1.309317,-0.0863 1.939677,-0.258787 0.630361,-0.172484 1.238977,-0.478533 1.676838,-0.963696 0.161606,-0.179045 0.303039,-0.384465 0.509371,-0.509368 0.196239,-0.118774 0.432795,-0.152554 0.662178,-0.152813 0.412154,-0.04317 0.826492,0.02612 1.238906,0.06673 0.412414,0.04061 0.84195,0.05022 1.22651,-0.104208 0.19228,-0.07721 0.369951,-0.195843 0.50232,-0.355255 0.132369,-0.159412 0.217456,-0.360842 0.222925,-0.567975 0.0055,-0.207132 -0.07248,-0.418288 -0.222667,-0.561033 -0.0751,-0.07137 -0.167126,-0.12517 -0.266768,-0.153541 -0.09964,-0.02837 -0.206758,-0.03105 -0.307194,-0.0056 -0.06515,0.0039 -0.128973,0.02614 -0.182977,0.06278 -0.054,0.03665 -0.09813,0.08748 -0.127765,0.145631 -0.05927,0.116298 -0.05762,0.259917 -0.0027,0.378326 0.05493,0.11841 0.160245,0.210796 0.282152,0.257447 0.121907,0.04665 0.258988,0.04878 0.384757,0.01386 0.125768,-0.03493 0.240263,-0.105786 0.333732,-0.196897 0.09347,-0.09111 0.166407,-0.202041 0.220947,-0.320629 0.10908,-0.237176 0.144565,-0.500777 0.170821,-0.76051 0.02625,-0.259735 0.0451,-0.522932 0.124471,-0.771632 0.03969,-0.124349 0.09461,-0.244488 0.169917,-0.351102 0.07531,-0.106614 0.171479,-0.199527 0.285069,-0.263833 0.11359,-0.06431 0.244956,-0.09919 0.37525,-0.09134 0.130293,0.0078 0.258873,0.05978 0.352572,0.150657 0.0937,0.09088 0.150133,0.221141 0.144408,0.351545 -0.0029,0.0652 -0.02089,0.129811 -0.05313,0.186558 -0.03224,0.05675 -0.07872,0.105477 -0.134435,0.139464 -1.5e-5,1e-5 -7e-6,4e-5 1.1e-5,4.1e-5 1.9e-5,10e-7 3.1e-5,-2.7e-5 1.8e-5,-4e-5 -1.3e-5,-1.3e-5 -4e-5,-2e-6 -4.1e-5,1.7e-5 0,1.8e-5 2.6e-5,3.1e-5 4e-5,1.9e-5 1.5e-5,-1.1e-5 9e-6,-3.8e-5 -8e-6,-4.4e-5 -1.8e-5,-5e-6 -3.8e-5,1.4e-5 -3.3e-5,3.2e-5 4e-6,1.8e-5 3e-5,2.6e-5 4.4e-5,1.4e-5 1.4e-5,-1.2e-5 1.1e-5,-3.8e-5 -6e-6,-4.7e-5 -1.3e-5,-1.1e-5 -3.7e-5,-5e-6 -4.4e-5,1.1e-5 -6e-6,1.6e-5 6e-6,3.7e-5 2.3e-5,4e-5 1.7e-5,3e-6 3.5e-5,-1.2e-5 3.5e-5,-3e-5 10e-7,-1.7e-5 -1.6e-5,-3.3e-5 -3.4e-5,-3.2e-5 -1.7e-5,10e-7 -3.2e-5,1.8e-5 -3.1e-5,3.6e-5 10e-7,1.7e-5 1.7e-5,3.2e-5 3.5e-5,3.3e-5 1.7e-5,0 3.4e-5,-1.4e-5 3.7e-5,-3.1e-5 3e-6,-1.8e-5 -8e-6,-3.6e-5 -2.4e-5,-4.3e-5 6.43e-4,-0.0011 4.39e-4,-0.0027 -4.48e-4,-0.0036 -8.86e-4,-9.55e-4 -0.0024,-0.0013 -0.0036,-8.14e-4 -0.0012,4.64e-4 -0.0021,0.0017 -0.0022,0.003 -1.26e-4,0.0013 4.97e-4,0.0026 0.0015,0.0034 0.001,7.72e-4 0.0025,9.73e-4 0.0037,5.6e-4 0.0012,-4.14e-4 0.0023,-0.0014 0.0027,-0.0026 4.68e-4,-0.0012 3.96e-4,-0.0026 -1.54e-4,-0.0038 -5.5e-4,-0.0012 -0.0016,-0.0021 -0.0028,-0.0026 -0.0012,-5.18e-4 -0.0026,-6.07e-4 -0.0038,-2.95e-4 -0.0013,3.13e-4 -0.0024,0.001 -0.0033,0.002 -8.93e-4,9.49e-4 -0.0015,0.0021 -0.0019,0.0034 -3.33e-4,0.0013 -3.72e-4,0.0026 -1.62e-4,0.0039 4.21e-4,0.0026 0.0018,0.0049 0.0036,0.0068 0.0018,0.0019 0.004,0.0033 0.0063,0.0045 0.03799,0.09578 0.09117,0.188698 0.098,0.291507 0.0034,0.0514 -0.0057,0.104647 -0.03256,0.14859 -0.01344,0.02197 -0.03124,0.04139 -0.05251,0.05591 -0.02128,0.01452 -0.04606,0.02407 -0.07169,0.02663 -0.02563,0.0026 -0.05206,-0.002 -0.07495,-0.01379 -0.02289,-0.01181 -0.04208,-0.03097 -0.05309,-0.05426 -0.01101,-0.02328 -0.01362,-0.05061 -0.0063,-0.07531 0.0073,-0.0247 0.02464,-0.04645 0.04751,-0.05829 0.02288,-0.01184 0.05105,-0.01334 0.07472,-0.0032 0.02367,0.01015 0.04219,0.032 0.04748,0.05721 0.0053,0.02521 -0.0032,0.05306 -0.02217,0.07046 -0.01899,0.0174 -0.048,0.02332 -0.07201,0.01399 -0.246851,-2.313242 0.99132,-4.736189 3.046121,-5.826976 2.054801,-1.090787 4.802607,-0.733247 6.46021,0.899044 1.657603,1.632292 2.043198,4.42929 0.828675,6.413466 -1.214524,1.984177 -3.940557,2.908 -6.085568,2.00747 -2.145013,-0.90053 -3.394935,-3.556574 -2.658001,-5.763146 0.736934,-2.206573 3.398324,-3.579677 5.603799,-2.839466 2.205475,0.740211 3.496484,3.510162 2.586403,5.65114 -0.910081,2.140978 -3.871612,3.120209 -5.846714,1.89098 -2.064813,-1.236344 -2.534513,-4.49674 -0.85757,-6.222968 1.676942,-1.726229 5.012776,-1.300284 6.14931,0.821106 1.136534,2.121389 -0.429718,5.176622 -2.822572,5.434014 -2.392854,0.257391 -4.579709,-2.481801 -3.745059,-4.739091 0.83467,-2.257284 4.358844,-2.875858 5.869626,-1.002482 1.510782,1.873377 0.07899,5.233098 -2.322731,5.387164 -2.401722,0.154067 -4.236436,-3.090087 -2.824058,-5.038725 1.412378,-1.948639 5.127377,-1.136702 5.548147,1.232888 0.06104,-0.149519 0.199998,-0.264121 0.35797,-0.297681 0.157972,-0.03356 0.330535,0.01403 0.450431,0.122231 0.119896,0.108196 0.184792,0.273862 0.172463,0.434888 -0.01233,0.161026 -0.100911,0.314118 -0.233122,0.406863 -0.132211,0.09274 -0.305263,0.124012 -0.462112,0.08554 -0.156849,-0.03847 -0.295172,-0.14545 -0.373795,-0.286517 -0.07862,-0.141067 -0.09699,-0.314008 -0.0519,-0.469084 0.04509,-0.155076 0.152573,-0.290626 0.292169,-0.371831 0.139597,-0.0812 0.309653,-0.107696 0.467811,-0.07502 0.158158,0.03267 0.303175,0.123767 0.403072,0.250661 0.0999,0.126893 0.154307,0.288412 0.153851,0.449909 -4.57e-4,0.161496 -0.05538,0.322014 -0.152102,0.451342 -0.09673,0.129328 -0.234489,0.227051 -0.387802,0.277809 -0.153314,0.05076 -0.321458,0.05466 -0.477578,0.01334 -0.15612,-0.04133 -0.299786,-0.127468 -0.411503,-0.24409 -0.111717,-0.116622 -0.191392,-0.26324 -0.230759,-0.419865 -0.03934,-0.156817 -0.03849,-0.32326 1.72e-4,-0.480248 0.03866,-0.156988 0.114847,-0.304326 0.21879,-0.428162 0.207887,-0.247672 0.525699,-0.394842 0.848649,-0.411023 0.322949,-0.01618 0.647591,0.09453 0.904866,0.290407 0.257275,0.195876 0.447912,0.473604 0.556033,0.778346 0.108122,0.304743 0.135541,0.635455 0.09795,0.956616 -0.03759,0.321162 -0.139005,0.633076 -0.280334,0.923909 -0.282659,0.581667 -0.718568,1.073336 -1.163625,1.542544 1.160578,0.439053 2.316761,0.917632 3.537189,1.141828 1.220429,0.224197 2.533238,0.17455 3.63102,-0.403883 0.548891,-0.289217 1.033538,-0.708828 1.368367,-1.231147 0.334829,-0.522319 0.514929,-1.148661 0.473141,-1.767677 -0.04179,-0.619017 -0.312126,-1.226057 -0.768497,-1.646358 -0.456372,-0.4203 -1.098841,-0.641174 -1.713495,-0.556749 -0.308199,0.04274 -0.606398,0.159595 -0.858943,0.341349 -0.252545,0.181753 -0.45866,0.428419 -0.588525,0.71117 -0.129866,0.282751 -0.18268,0.601082 -0.14658,0.910129 0.0361,0.309047 0.161571,0.607753 0.360476,0.847022 0.198905,0.23927 0.470945,0.417747 0.770855,0.500617 0.29991,0.08287 0.626419,0.06906 0.91668,-0.04302 0.290261,-0.112079 0.542291,-0.322478 0.700607,-0.590338 0.158317,-0.26786 0.221083,-0.591716 0.169943,-0.898633 -0.05114,-0.306917 -0.216649,-0.594168 -0.459299,-0.788936 -0.24265,-0.194767 -0.560648,-0.294354 -0.870716,-0.268441 -0.310068,0.02591 -0.608512,0.178076 -0.808307,0.416603 -0.199796,0.238527 -0.297366,0.560916 -0.259097,0.869702 0.03827,0.308786 0.212986,0.598977 0.4704,0.773766 0.257415,0.174789 0.593609,0.229946 0.892215,0.142495 0.298607,-0.08745 0.55306,-0.317025 0.66676,-0.606655 0.113701,-0.28963 0.0826,-0.633021 -0.08482,-0.895288 0,0 0,0 0,0 0,0 0,0 0,0 0,0 0,0 0,0 0,0 0,0 0,0 0,0 0,0 0,0 0,0 0,0 0,0 0,0 0,0 0,0 0,0 0,0 0,0 0,0 0,0 0,0 0,0 0,0 0,0 0,0 0,0 0,0 0,0 0,0 0,0 0,0 0,0 0,0 0,0 0,0 0,0 0,0 0,0 0,0 0,0 0,0 0,0 0,0 0,0 0,0 0,0 0,0 0,0 0,0 0,0 0,0 0,0 0,0 0,0 0,0 0,0 0,0 0,0 0,0 0,0 0,0 0,0 0,10e-7 0,0 0,0 0,0 0,-10e-7 -1e-6,-3e-6 -1e-6,-4e-6 -10e-7,0 -10e-7,-1e-6 -2e-6,-1e-6 -1e-6,0 -1e-6,0 -2e-6,0 0,0 0,0 -10e-7,1e-6 0,0 0,0 0,0 0,10e-7 0,10e-7 0,10e-7 10e-7,10e-7 10e-7,10e-7 10e-7,10e-7 0,0 10e-7,0 10e-7,-10e-7 0,0 0,0 0,-10e-7 0,0 -10e-7,0 -10e-7,0 0,0 0,10e-7 0,10e-7 1.75e-4,-1.6e-4 1.81e-4,-4.75e-4 10e-7,-6.3e-4 -1.79e-4,-1.55e-4 -5.05e-4,-9e-5 -5.96e-4,1.29e-4 -9.1e-5,2.19e-4 1.15e-4,5.05e-4 3.5e-4,4.72e-4 2.35e-4,-3.3e-5 3.44e-4,-3.91e-4 1.58e-4,-5.38e-4 -1.86e-4,-1.47e-4 -5.17e-4,7.5e-5 -4.38e-4,2.99e-4 7.9e-5,2.24e-4 4.97e-4,1.58e-4 4.9e-4,-7.9e-5 -7e-6,-2.37e-4 -4.57e-4,-2.45e-4 -4.59e-4,-8e-6 -2e-6,2.38e-4 4.72e-4,1.96e-4 4.16e-4,-3.5e-5 -0.512743,-0.914808 -2.115124,0.606079 -1.200882,1.11983 0.914242,0.513751 1.15379,-1.778218 0.169272,-1.416966 -0.984515,0.361263 0.917842,1.790176 0.94338,0.741782 0.02554,-1.048394 -1.788788,0.560235 -0.741589,0.61641 0.571534,2.137373 2.460043,-2.63198 0.627572,-1.392196 -1.832471,1.239784 3.153771,0.5 1.017626,-0.07611 -2.132194,-0.572188 2.071112,1.783297 0.418577,0.319473 -1.652534,-1.463825 1.56522,1.633467 -0.01139,0.08817 C -4296218300,81.42138 -8565981300,-1768593700 -11603866000,-4806478800 c -3037886000,-3037885100 -4806479000,-7307648200 -4806479000,-11603866200 0,-4296219000 1768593000,-8565982000 4806479000,-11603867000 C -8565981300,-31052097000 -4296218300,-32820691000 64.537013,-32820691000 4296218400,-32820691000 8565981400,-31052097000 11603867000,-28014212000 c 3037885000,3037885000 4806478000,7307648000 4806478000,11603867000 0,4296218000 -1768593000,8565981100 -4806478000,11603866200 C 8565981400,-1768593700 4296218400,81.421389 64.638882,81.448049 H 64.3842"
       id="path12" />
    <path
       id="text13"
       style="font-size:3.175px;fill:none;stroke:#7cb3dd;stroke-width:0.265"
       d="m 18.763872,77.851214 q 0,0.314709 -0.137976,0.570507 -0.136426,0.255799 -0.364319,0.396875 -0.15813,0.09767 -0.353467,0.141077 -0.193786,0.04341 -0.511596,0.04341 h -0.582911 v -2.308386 h 0.576709 q 0.337964,0 0.536402,0.04961 0.199987,0.04806 0.337964,0.133326 0.235644,0.147278 0.367419,0.392224 0.131775,0.244946 0.131775,0.58136 z m -0.320911,-0.0047 q 0,-0.271301 -0.09457,-0.457337 -0.09457,-0.186035 -0.282153,-0.293005 -0.136426,-0.07751 -0.289905,-0.10697 -0.153479,-0.03101 -0.367419,-0.03101 h -0.288355 v 1.781287 h 0.288355 q 0.221692,0 0.386023,-0.03256 0.165881,-0.03256 0.303857,-0.120922 0.172083,-0.110071 0.257349,-0.289905 0.08682,-0.179834 0.08682,-0.449585 z m 2.337842,1.156518 h -1.520837 v -2.308386 h 1.520837 v 0.272852 h -1.213879 v 0.632519 h 1.213879 v 0.272852 h -1.213879 v 0.857312 h 1.213879 z m 2.306836,-2.308386 -0.840259,2.308386 h -0.409277 l -0.840259,-2.308386 h 0.328662 l 0.723987,2.030884 0.723987,-2.030884 z m 2.077393,2.308386 H 24.83792 L 24.611577,78.35971 h -0.998388 l -0.226343,0.643371 h -0.311609 l 0.840259,-2.308386 h 0.409277 z m -0.648023,-0.906921 -0.404626,-1.133264 -0.406177,1.133264 z m 2.759522,0.906921 h -0.379822 l -1.094507,-2.06499 v 2.06499 h -0.286804 v -2.308386 h 0.47594 l 0.998389,1.885156 v -1.885156 h 0.286804 z m 2.291333,-0.658874 q 0,0.134875 -0.06356,0.26665 -0.06201,0.131775 -0.175184,0.223242 -0.124023,0.09922 -0.289904,0.15503 -0.164331,0.05581 -0.396875,0.05581 -0.249597,0 -0.449585,-0.04651 -0.198438,-0.04651 -0.404627,-0.137976 v -0.384472 h 0.0217 q 0.175183,0.145727 0.404627,0.224792 0.229443,0.07906 0.430981,0.07906 0.285254,0 0.443384,-0.10697 0.15968,-0.10697 0.15968,-0.285254 0,-0.153479 -0.07596,-0.226343 -0.07441,-0.07286 -0.227893,-0.113171 -0.116272,-0.03101 -0.252698,-0.05116 -0.134875,-0.02015 -0.286804,-0.05116 -0.306958,-0.06511 -0.455786,-0.221692 -0.147278,-0.15813 -0.147278,-0.410828 0,-0.289905 0.244946,-0.47439 0.244946,-0.186035 0.621668,-0.186035 0.243396,0 0.446484,0.04651 0.203088,0.04651 0.359668,0.114722 v 0.362768 h -0.0217 q -0.131775,-0.111621 -0.347266,-0.184485 -0.21394,-0.07441 -0.438733,-0.07441 -0.246496,0 -0.396875,0.10232 -0.148828,0.102319 -0.148828,0.263549 0,0.144178 0.07441,0.226343 0.07441,0.08217 0.262,0.125574 0.09922,0.0217 0.282153,0.05271 0.182935,0.03101 0.310059,0.06356 0.257348,0.06821 0.387573,0.206189 0.130225,0.137976 0.130225,0.386023 z m 2.258776,0.658874 h -0.306958 v -1.130163 h -1.151867 v 1.130163 h -0.306958 v -2.308386 h 0.306958 v 0.905371 h 1.151867 v -0.905371 h 0.306958 z" />
  </g>
</svg>
